<svg width="114" height="140" viewBox="0 0 114 140" fill="none" xmlns="http://www.w3.org/2000/svg">
<path d="M27.6971 39.7517H87.2482V99.3028H27.6971V39.7517Z" fill="#D9D9D9"/>
<path d="M0.284668 63.443V29.9494C0.284668 26.9958 1.14131 24.3376 2.85458 21.9747C4.56786 19.6118 6.7833 17.8987 9.50091 16.8354L52.0374 0.886076C53.6916 0.295359 55.3458 0 57 0C58.6542 0 60.3084 0.295359 61.9626 0.886076L104.499 16.8354C107.217 17.8987 109.432 19.6118 111.145 21.9747C112.859 24.3376 113.715 26.9958 113.715 29.9494V63.443C113.715 79.9831 108.989 95.4304 99.5365 109.785C90.0839 124.139 77.3821 133.975 61.4309 139.291C60.7219 139.527 60.013 139.705 59.3041 139.823C58.5951 139.941 57.8271 140 57 140C56.1729 140 55.4049 139.941 54.6959 139.823C53.987 139.705 53.2781 139.527 52.5691 139.291C36.6179 133.975 23.9161 124.139 14.4635 109.785C5.01095 95.4304 0.284668 79.9831 0.284668 63.443ZM42.8212 98.1772H71.1788C73.1875 98.1772 74.8712 97.4979 76.23 96.1392C77.5888 94.7806 78.2682 93.097 78.2682 91.0886V69.8228C78.2682 67.8143 77.5888 66.1308 76.23 64.7722C74.8712 63.4135 73.1875 62.7342 71.1788 62.7342V55.6456C71.1788 51.7468 69.7905 48.4093 67.0138 45.6329C64.2371 42.8565 60.8992 41.4684 57 41.4684C53.1008 41.4684 49.7629 42.8565 46.9862 45.6329C44.2095 48.4093 42.8212 51.7468 42.8212 55.6456V62.7342C40.8125 62.7342 39.1288 63.4135 37.77 64.7722C36.4112 66.1308 35.7317 67.8143 35.7317 69.8228V91.0886C35.7317 93.097 36.4112 94.7806 37.77 96.1392C39.1288 97.4979 40.8125 98.1772 42.8212 98.1772ZM49.9106 62.7342V55.6456C49.9106 53.6371 50.59 51.9536 51.9488 50.5949C53.3076 49.2363 54.9913 48.557 57 48.557C59.0087 48.557 60.6924 49.2363 62.0512 50.5949C63.41 51.9536 64.0894 53.6371 64.0894 55.6456V62.7342H49.9106Z" fill="url(#paint0_linear_318_279)"/>
<defs>
<linearGradient id="paint0_linear_318_279" x1="91.5018" y1="115.845" x2="18.2445" y2="15.6477" gradientUnits="userSpaceOnUse">
<stop stop-color="#ACB823"/>
<stop offset="1" stop-color="#83847D"/>
</linearGradient>
</defs>
</svg>
