<svg width="112" height="26" viewBox="0 0 112 26" fill="none" xmlns="http://www.w3.org/2000/svg">
<path d="M11.9113 25.5C10.3471 25.5 8.79821 25.1889 7.35306 24.5846C5.90791 23.9802 4.59482 23.0944 3.48875 21.9777C2.38268 20.861 1.50529 19.5353 0.906695 18.0763C0.308095 16.6173 -6.83741e-08 15.0535 0 13.4743C6.83741e-08 11.895 0.308096 10.3312 0.906696 8.8722C1.5053 7.41317 2.38268 6.08746 3.48875 4.97077C4.59482 3.85408 5.90791 2.96827 7.35306 2.36392C8.79821 1.75956 10.3471 1.44851 11.9113 1.44851L11.9113 25.5Z" fill="white"/>
<path d="M34.459 1.44851V25.5H29.8622V15.2358H19.0581V25.5H14.4278V1.44851H19.0581V11.1707H29.8622V1.44851H34.459Z" fill="white"/>
<path d="M46.2361 25.5C44.8268 25.5 43.5518 25.2629 42.411 24.7886C41.2702 24.2918 40.2972 23.6256 39.4919 22.79C38.6866 21.9318 38.0603 20.9607 37.6129 19.8767C37.1879 18.7701 36.9754 17.607 36.9754 16.3875C36.9754 14.6938 37.3445 13.1468 38.0827 11.7466C38.8432 10.3464 39.9169 9.22854 41.3038 8.39295C42.713 7.53478 44.3683 7.10569 46.2696 7.10569C48.1933 7.10569 49.8374 7.53478 51.2019 8.39295C52.5664 9.22854 53.6066 10.3464 54.3223 11.7466C55.0605 13.1242 55.4296 14.6147 55.4296 16.2182C55.4296 16.4892 55.4184 16.7715 55.396 17.065C55.3737 17.336 55.3513 17.5619 55.3289 17.7425H41.74C41.8294 18.6459 42.0867 19.4363 42.5117 20.1138C42.9591 20.7913 43.5183 21.3108 44.1893 21.6721C44.8828 22.0108 45.6209 22.1802 46.4038 22.1802C47.2986 22.1802 48.1374 21.9657 48.9203 21.5366C49.7256 21.0849 50.2736 20.4977 50.5644 19.7751L54.423 20.8591C53.998 21.7624 53.3829 22.5641 52.5776 23.2642C51.7947 23.9643 50.8664 24.5176 49.7927 24.9241C48.719 25.308 47.5335 25.5 46.2361 25.5ZM41.6393 14.8631H50.8328C50.7434 13.9598 50.4861 13.1807 50.0611 12.5257C49.6585 11.8482 49.1216 11.3288 48.4506 10.9675C47.7795 10.5836 47.0302 10.3916 46.2025 10.3916C45.3972 10.3916 44.6591 10.5836 43.988 10.9675C43.3393 11.3288 42.8025 11.8482 42.3775 12.5257C41.9748 13.1807 41.7288 13.9598 41.6393 14.8631Z" fill="white"/>
<path d="M57.9461 0.5H62.4422V19.5379C62.4422 20.3509 62.5764 20.9042 62.8448 21.1978C63.1132 21.4688 63.4823 21.6043 63.9521 21.6043C64.31 21.6043 64.679 21.5592 65.0593 21.4688C65.4396 21.3785 65.7751 21.2656 66.0659 21.1301L66.6699 24.5854C66.0659 24.879 65.3613 25.1048 64.556 25.2629C63.7507 25.421 63.0238 25.5 62.3751 25.5C60.9658 25.5 59.8698 25.1274 59.0869 24.3821C58.3263 23.6143 57.9461 22.5303 57.9461 21.1301V0.5Z" fill="white"/>
<path d="M69.1863 25.5V7.74932H73.6824V25.5H69.1863ZM69.1863 5.27642V0.771002H73.6824V5.27642H69.1863Z" fill="white"/>
<path d="M85.426 25.5C83.9944 25.5 82.7082 25.2629 81.5674 24.7886C80.4266 24.2918 79.4536 23.6143 78.6483 22.7561C77.8654 21.8979 77.2614 20.9155 76.8364 19.8089C76.4114 18.7023 76.1989 17.5393 76.1989 16.3198C76.1989 15.0777 76.4114 13.9033 76.8364 12.7967C77.2614 11.6902 77.8654 10.7078 78.6483 9.84959C79.4536 8.99142 80.4266 8.3252 81.5674 7.85095C82.7082 7.35411 83.9944 7.10569 85.426 7.10569C86.8576 7.10569 88.1326 7.35411 89.2511 7.85095C90.3919 8.3252 91.3649 8.99142 92.1702 9.84959C92.9754 10.7078 93.5794 11.6902 93.982 12.7967C94.407 13.9033 94.6195 15.0777 94.6195 16.3198C94.6195 17.5393 94.407 18.7023 93.982 19.8089C93.5794 20.9155 92.9754 21.8979 92.1702 22.7561C91.3873 23.6143 90.4254 24.2918 89.2846 24.7886C88.1438 25.2629 86.8576 25.5 85.426 25.5ZM80.8292 16.3198C80.8292 17.3586 81.0306 18.2846 81.4332 19.0976C81.8358 19.888 82.3839 20.509 83.0773 20.9607C83.7707 21.4124 84.5536 21.6382 85.426 21.6382C86.276 21.6382 87.0477 21.4124 87.7412 20.9607C88.4346 20.4865 88.9826 19.8541 89.3853 19.0637C89.8103 18.2507 90.0228 17.3248 90.0228 16.2859C90.0228 15.2696 89.8103 14.355 89.3853 13.542C88.9826 12.729 88.4346 12.0967 87.7412 11.645C87.0477 11.1933 86.276 10.9675 85.426 10.9675C84.5536 10.9675 83.7707 11.2046 83.0773 11.6789C82.3839 12.1305 81.8358 12.7629 81.4332 13.5759C81.0306 14.3663 80.8292 15.2809 80.8292 16.3198Z" fill="white"/>
<path d="M104.954 25.5C103.455 25.5 102.024 25.2516 100.659 24.7547C99.2946 24.2579 98.1202 23.5239 97.136 22.5528L98.7466 19.6057C99.7979 20.4639 100.827 21.0962 101.833 21.5027C102.862 21.9092 103.847 22.1125 104.786 22.1125C105.658 22.1125 106.352 21.9544 106.866 21.6382C107.403 21.322 107.672 20.8478 107.672 20.2154C107.672 19.7864 107.526 19.4589 107.235 19.2331C106.945 18.9846 106.52 18.7701 105.96 18.5894C105.424 18.4088 104.764 18.2055 103.981 17.9797C102.683 17.5506 101.599 17.1328 100.726 16.7263C99.8538 16.3198 99.1939 15.8117 98.7466 15.2019C98.3216 14.5696 98.1091 13.7678 98.1091 12.7967C98.1091 11.6224 98.3998 10.6174 98.9814 9.78184C99.5854 8.92367 100.413 8.25745 101.464 7.7832C102.538 7.30894 103.791 7.07181 105.222 7.07181C106.475 7.07181 107.66 7.27507 108.779 7.68157C109.897 8.06549 110.915 8.69783 111.832 9.57859L110.02 12.458C109.126 11.7579 108.276 11.2498 107.47 10.9336C106.665 10.5948 105.849 10.4255 105.021 10.4255C104.551 10.4255 104.104 10.4819 103.679 10.5948C103.276 10.7078 102.941 10.8997 102.672 11.1707C102.426 11.4191 102.303 11.7805 102.303 12.2547C102.303 12.6838 102.415 13.0226 102.639 13.271C102.885 13.4968 103.243 13.7001 103.712 13.8808C104.205 14.0614 104.797 14.2647 105.491 14.4905C106.9 14.897 108.085 15.3148 109.047 15.7439C110.032 16.173 110.77 16.7037 111.262 17.336C111.754 17.9458 112 18.7927 112 19.8767C112 21.6382 111.362 23.0158 110.087 24.0095C108.812 25.0032 107.101 25.5 104.954 25.5Z" fill="white"/>
</svg>
