<svg width="114" height="140" viewBox="0 0 114 140" fill="none" xmlns="http://www.w3.org/2000/svg">
<path fill-rule="evenodd" clip-rule="evenodd" d="M0.284668 29.9494V63.443C0.284668 79.9831 5.01095 95.4304 14.4635 109.785C23.9161 124.139 36.6179 133.975 52.5691 139.291C53.2781 139.527 53.987 139.705 54.6959 139.823C55.4049 139.941 56.1729 140 57 140C57.8271 140 58.5951 139.941 59.3041 139.823C60.013 139.705 60.7219 139.527 61.4309 139.291C77.3821 133.975 90.0839 124.139 99.5365 109.785C108.989 95.4304 113.715 79.9831 113.715 63.443V29.9494C113.715 26.9958 112.859 24.3376 111.145 21.9747C109.432 19.6118 107.217 17.8987 104.499 16.8354L61.9626 0.886076C60.3084 0.295359 58.6542 0 57 0C55.3458 0 53.6916 0.295359 52.0374 0.886076L9.50091 16.8354C6.7833 17.8987 4.56786 19.6118 2.85458 21.9747C1.14131 24.3376 0.284668 26.9958 0.284668 29.9494ZM76.23 96.1392C74.8712 97.4979 73.1875 98.1772 71.1788 98.1772H42.8212C40.8125 98.1772 39.1288 97.4979 37.77 96.1392C36.4112 94.7806 35.7317 93.097 35.7317 91.0886V69.8228C35.7317 67.8143 36.4112 66.1308 37.77 64.7722C39.1288 63.4135 40.8125 62.7342 42.8212 62.7342H46.1296H49.9106H64.0894V55.6456C64.0894 53.6371 63.41 51.9536 62.0512 50.5949C60.6924 49.2363 59.0087 48.557 57 48.557C54.9913 48.557 53.3076 49.2363 51.9488 50.5949C50.59 51.9536 49.9106 53.6371 49.9106 55.6456H46.1296H42.8212C42.8212 51.7468 44.2095 48.4093 46.9862 45.6329C49.7629 42.8565 53.1008 41.4684 57 41.4684C60.8992 41.4684 64.2371 42.8565 67.0138 45.6329C69.7905 48.4093 71.1788 51.7468 71.1788 55.6456V62.7342C73.1875 62.7342 74.8712 63.4135 76.23 64.7722C77.5888 66.1308 78.2682 67.8143 78.2682 69.8228V91.0886C78.2682 93.097 77.5888 94.7806 76.23 96.1392Z" fill="white"/>
</svg>
